<svg xmlns="http://www.w3.org/2000/svg" viewBox="0 0 1200 630" role="img" aria-label="Skill Marketplace Preview">
  <defs>
    <linearGradient id="bg" x1="0" y1="0" x2="1" y2="1">
      <stop offset="0%" stop-color="#f8fbff"/>
      <stop offset="100%" stop-color="#eef5ff"/>
    </linearGradient>
    <linearGradient id="brand" x1="0" y1="0" x2="1" y2="1">
      <stop offset="0%" stop-color="#0969da"/>
      <stop offset="100%" stop-color="#3fb8ff"/>
    </linearGradient>
  </defs>

  <rect width="1200" height="630" fill="url(#bg)"/>
  <circle cx="1100" cy="70" r="210" fill="#56d4ff" opacity="0.2"/>
  <circle cx="110" cy="560" r="220" fill="#8bd8ff" opacity="0.16"/>

  <rect x="72" y="62" width="1056" height="506" rx="30" fill="#ffffff"/>
  <rect x="72" y="62" width="1056" height="506" rx="30" fill="none" stroke="#d0d7de"/>

  <g transform="translate(522 164) scale(1.392857)">
    <g transform="translate(-183.518 -89.714)">
      <rect x="183.518" y="89.714" width="112" height="112" rx="23" fill="url(#brand)" style="stroke-width: 1;"/>
      <g transform="matrix(1, 0, 0, 1, 0, 5.250008)">
        <g transform="matrix(1.166667, 0, 0, 1.166667, 183.51799, 84.666977)">
          <path d="M 18 37.826 L 78 37.826 M 18 57.826 L 60 57.826" stroke="#ffffff" stroke-width="10" stroke-linecap="round"/>
        </g>
      </g>
      <circle cx="253.518" cy="157.347" r="10.5" fill="#ffffff" style="stroke-width: 1.167;"/>
    </g>
  </g>

  <text x="600" y="404" text-anchor="middle" font-family="Arial, sans-serif" font-size="62" font-weight="700" fill="#1f2328">Skill Marketplace Template</text>
  <text x="600" y="450" text-anchor="middle" font-family="Arial, sans-serif" font-size="33" fill="#57606a">Template for reusable agent skills</text>
</svg>
