<?xml version="1.0" encoding="UTF-8"?>
<svg xmlns="http://www.w3.org/2000/svg" width="1200" height="630" viewBox="0 0 1200 630" role="img" aria-labelledby="title desc">
  <title id="title">Skillful RAN preview</title>
  <desc id="desc">Skillful RAN marketplace card for OCUDU and open RAN skill packs.</desc>
  <defs>
    <linearGradient id="bg" x1="0" y1="0" x2="1" y2="1">
      <stop offset="0" stop-color="#0f172a"/>
      <stop offset="0.55" stop-color="#0f766e"/>
      <stop offset="1" stop-color="#22d3ee"/>
    </linearGradient>
  </defs>
  <rect width="1200" height="630" fill="url(#bg)"/>
  <circle cx="1090" cy="120" r="180" fill="#ffffff" opacity="0.07"/>
  <circle cx="150" cy="560" r="220" fill="#22d3ee" opacity="0.08"/>
  <rect x="70" y="72" width="1060" height="486" rx="36" fill="#08111f" opacity="0.26" stroke="#ffffff" stroke-opacity="0.14"/>

  <g transform="translate(104 120)">
    <rect width="126" height="126" rx="28" fill="#ffffff" opacity="0.14"/>
    <rect x="17" y="17" width="92" height="92" rx="22" fill="#0f172a" stroke="#d9fffb" stroke-opacity="0.35"/>
    <g fill="none" stroke="#ffffff" stroke-linecap="round">
      <path d="M34 43h34" stroke-width="10"/>
      <path d="M34 62h45" stroke-width="10"/>
      <path d="M34 81h28" stroke-width="10"/>
      <path d="M79 43v19" stroke-width="7"/>
      <path d="M79 62h10" stroke-width="7"/>
    </g>
    <circle cx="92" cy="62" r="8" fill="#ffffff"/>
  </g>

  <text x="270" y="176" fill="#d9fffb" font-family="Space Grotesk, Arial, sans-serif" font-size="28" font-weight="700" letter-spacing="4">OPEN RAN • OCUDU ECOSYSTEM</text>
  <text x="104" y="290" fill="#ffffff" font-family="Source Serif 4, Georgia, serif" font-size="90" font-weight="600">Skillful RAN</text>
  <text x="104" y="362" fill="#d5eef1" font-family="Space Grotesk, Arial, sans-serif" font-size="32">
    Practical, junior-friendly skill packs for building,
  </text>
  <text x="104" y="406" fill="#d5eef1" font-family="Space Grotesk, Arial, sans-serif" font-size="32">
    testing, and understanding OCUDU and the open RAN stack.
  </text>

  <g transform="translate(104 462)">
    <rect width="196" height="46" rx="23" fill="#ffffff" opacity="0.13"/>
    <text x="26" y="31" fill="#ffffff" font-family="Space Grotesk, Arial, sans-serif" font-size="22" font-weight="700">OCUDU build</text>
  </g>
  <g transform="translate(320 462)">
    <rect width="200" height="46" rx="23" fill="#ffffff" opacity="0.13"/>
    <text x="26" y="31" fill="#ffffff" font-family="Space Grotesk, Arial, sans-serif" font-size="22" font-weight="700">Host audit</text>
  </g>
  <g transform="translate(540 462)">
    <rect width="218" height="46" rx="23" fill="#ffffff" opacity="0.13"/>
    <text x="26" y="31" fill="#ffffff" font-family="Space Grotesk, Arial, sans-serif" font-size="22" font-weight="700">Smoke test</text>
  </g>
  <g transform="translate(778 462)">
    <rect width="250" height="46" rx="23" fill="#ffffff" opacity="0.13"/>
    <text x="26" y="31" fill="#ffffff" font-family="Space Grotesk, Arial, sans-serif" font-size="22" font-weight="700">Skill packaging</text>
  </g>
</svg>
