<?xml version="1.0" encoding="UTF-8"?>
<svg xmlns="http://www.w3.org/2000/svg" width="1200" height="630" viewBox="0 0 1200 630" role="img" aria-labelledby="title desc">
  <title id="title">Skillful RAN preview</title>
  <desc id="desc">Premium Skillful RAN marketplace card for AI-RAN, O-RAN, and OCUDU workflows.</desc>
  <defs>
    <linearGradient id="bg" x1="0.9" y1="0.08" x2="0.12" y2="0.94">
      <stop offset="0" stop-color="#fffdf7"/>
      <stop offset="0.48" stop-color="#edf8e2"/>
      <stop offset="1" stop-color="#95e1d3"/>
    </linearGradient>
    <radialGradient id="glow-a" cx="0.12" cy="0.15" r="0.8">
      <stop offset="0" stop-color="#fce38a" stop-opacity="0.18"/>
      <stop offset="0.55" stop-color="#fce38a" stop-opacity="0.06"/>
      <stop offset="1" stop-color="#fce38a" stop-opacity="0"/>
    </radialGradient>
    <radialGradient id="glow-b" cx="0.88" cy="0.2" r="0.55">
      <stop offset="0" stop-color="#ffffff" stop-opacity="0.2"/>
      <stop offset="0.6" stop-color="#ffffff" stop-opacity="0.04"/>
      <stop offset="1" stop-color="#ffffff" stop-opacity="0"/>
    </radialGradient>
    <linearGradient id="frame-stroke" x1="0" y1="0" x2="1" y2="1">
      <stop offset="0" stop-color="#ffffff" stop-opacity="0.55"/>
      <stop offset="1" stop-color="#95e1d3" stop-opacity="0.18"/>
    </linearGradient>
    <linearGradient id="wand-body-preview" x1="0.15" y1="0" x2="1" y2="1">
      <stop offset="0" stop-color="#4f6368"/>
      <stop offset="0.55" stop-color="#5a9cb8"/>
      <stop offset="1" stop-color="#95e1d3"/>
    </linearGradient>
    <linearGradient id="star-fill-preview" x1="0.1" y1="0" x2="0.95" y2="1">
      <stop offset="0" stop-color="#ffffff"/>
      <stop offset="0.28" stop-color="#fff6d3"/>
      <stop offset="0.62" stop-color="#fce38a"/>
      <stop offset="1" stop-color="#f38181"/>
    </linearGradient>
    <linearGradient id="signal-stroke-preview" x1="0" y1="0" x2="1" y2="1">
      <stop offset="0" stop-color="#fce38a"/>
      <stop offset="0.58" stop-color="#f5c397"/>
      <stop offset="1" stop-color="#ef9a8d"/>
    </linearGradient>
    <linearGradient id="signal-highlight-preview" x1="0" y1="0" x2="1" y2="1">
      <stop offset="0" stop-color="#ffffff"/>
      <stop offset="0.4" stop-color="#fff6d3"/>
      <stop offset="0.75" stop-color="#ffe6c8"/>
      <stop offset="1" stop-color="#ffdaba"/>
    </linearGradient>
    <filter id="soft-blur" x="-20%" y="-20%" width="140%" height="140%">
      <feGaussianBlur stdDeviation="28"/>
    </filter>
  </defs>

  <rect width="1200" height="630" fill="url(#bg)"/>
  <rect width="1200" height="630" fill="url(#glow-a)"/>
  <rect width="1200" height="630" fill="url(#glow-b)"/>

  <circle cx="175" cy="112" r="126" fill="#fce38a" opacity="0.14" filter="url(#soft-blur)"/>
  <circle cx="1026" cy="96" r="140" fill="#ffffff" opacity="0.08" filter="url(#soft-blur)"/>

  <rect x="74" y="72" width="1052" height="486" rx="40" fill="#fffdf7" fill-opacity="0.48" stroke="url(#frame-stroke)"/>

  <g transform="translate(116 118)">
    <rect width="184" height="184" rx="42" fill="#fffdf7" fill-opacity="0.74" stroke="#ffffff" stroke-opacity="0.44"/>
    <g transform="translate(0 0) scale(1.4375)">
      <g fill="none" stroke-linecap="round">
        <g stroke="#f5c397" opacity="0.14" filter="url(#soft-blur)">
          <path d="M64 22A42 42 0 0 1 106 64" stroke-width="10"/>
          <path d="M64 33A31 31 0 0 1 95 64" stroke-width="10"/>
          <path d="M64 44A20 20 0 0 1 84 64" stroke-width="10"/>
        </g>
        <g stroke="url(#signal-stroke-preview)">
          <path d="M64 22A42 42 0 0 1 106 64" stroke-width="6.8"/>
          <path d="M64 33A31 31 0 0 1 95 64" stroke-width="6.8"/>
          <path d="M64 44A20 20 0 0 1 84 64" stroke-width="6.8"/>
        </g>
        <g stroke="url(#signal-highlight-preview)" opacity="0.88">
          <path d="M64 22A42 42 0 0 1 106 64" stroke-width="2.1"/>
          <path d="M64 33A31 31 0 0 1 95 64" stroke-width="2.1"/>
          <path d="M64 44A20 20 0 0 1 84 64" stroke-width="2.1"/>
        </g>
      </g>

      <g opacity="0.12" filter="url(#soft-blur)">
        <line x1="30" y1="98" x2="64" y2="64" stroke="#5a9cb8" stroke-width="14.2" stroke-linecap="round"/>
      </g>
      <line x1="30" y1="98" x2="64" y2="64" stroke="url(#wand-body-preview)" stroke-width="11.8" stroke-linecap="round"/>

      <path d="M64 51.8L67.4 58.6L75.5 59.3L69.4 64.6L71.3 72.5L64 68L56.7 72.5L58.6 64.6L52.5 59.3L60.6 58.6Z" fill="#ffffff" opacity="0.34" transform="rotate(45 64 64)"/>
      <path d="M64 49.8L67.4 56.6L75.5 57.3L69.4 62.6L71.3 70.5L64 66L56.7 70.5L58.6 62.6L52.5 57.3L60.6 56.6Z" fill="url(#star-fill-preview)" stroke="#bf6668" stroke-width="2.1" stroke-linejoin="round" transform="rotate(45 64 64)"/>
    </g>
  </g>

  <text x="350" y="163" fill="#2b746b" font-family="Space Grotesk, Arial, sans-serif" font-size="26" font-weight="700" letter-spacing="5">AI-RAN • O-RAN • OCUDU</text>
  <text x="350" y="286" fill="#21333a" font-family="Source Serif 4, Georgia, serif" font-size="112" font-weight="600">Skillful RAN</text>
  <text x="350" y="350" fill="#4f6368" font-family="Space Grotesk, Arial, sans-serif" font-size="29" font-weight="500" letter-spacing="0.2">
    <tspan x="350" dy="0">Execution-ready workflows for AI-RAN, O-RAN,</tspan>
    <tspan x="350" dy="40">and OCUDU validation systems.</tspan>
  </text>

  <g transform="translate(350 442)">
    <rect width="276" height="52" rx="26" fill="#fffdf7" fill-opacity="0.9" stroke="#95e1d3" stroke-opacity="0.5"/>
    <text x="138" y="33" text-anchor="middle" fill="#21333a" font-family="Space Grotesk, Arial, sans-serif" font-size="21" font-weight="700">Execution-ready packs</text>
  </g>
  <g transform="translate(646 442)">
    <rect width="220" height="52" rx="26" fill="#fffdf7" fill-opacity="0.9" stroke="#95e1d3" stroke-opacity="0.5"/>
    <text x="110" y="33" text-anchor="middle" fill="#21333a" font-family="Space Grotesk, Arial, sans-serif" font-size="21" font-weight="700">Validation lanes</text>
  </g>
</svg>
